<svg xmlns="http://www.w3.org/2000/svg" xml:space="preserve" width="200" height="170.909" version="1.1"
  style="shape-rendering:geometricPrecision; text-rendering:geometricPrecision; image-rendering:optimizeQuality; fill-rule:evenodd; clip-rule:evenodd"
  viewBox="0 0 20000 17090.909" xmlns:xlink="http://www.w3.org/1999/xlink">
  <defs>
    <style type="text/css">
      .fil2 {
        fill: #006DB0
      }

      .fil3 {
        fill: #00ADE6
      }

      .fil4 {
        fill: #FFF
      }

      .fil0 {
        fill: #8F181B
      }

      .fil1 {
        fill: #EDBC1B
      }

      .fil5 {
        fill: #FFF;
        fill-rule: nonzer
      }
    </style>
  </defs>
  <g id="Layer_x0020_1">
    <metadata id="CorelCorpID_0Corel-Layer" />
    <g id="_2412662981808">
      <path class="fil0"
        d="M7501.051 2699.589h-1182.822c-134.506 0 -244.553 -110.043 -244.553 -244.549V1267.233h1144.72c155.462 0 282.654 127.192 282.654 282.654z" />
      <path class="fil1"
        d="M12554.836 6887.666h1182.818c134.509 0 244.553 110.047 244.553 244.553v1187.803h-1144.716c-155.462 0 -282.654 -127.192 -282.654 -282.654z" />
      <path class="fil2"
        d="M6645.28 7112.037c467.757 0 850.466 382.709 850.466 850.466v1123.262c0 474.854 388.517 863.375 863.371 863.375h1980.368v-2035.531c0 -439.192 -359.338 -798.528 -798.531 -798.528h-1198.437c-442.913 0 -807.648 -351.782 -828.604 -789.742 -0.632 -13.197 -1.058 -26.469 -0.953 -39.815l8.323 -1034.851c2.553 -317.272 211.24 -557.342 591.6 -557.342h851.043c290.625 0 528.411 -237.786 528.411 -528.414V2699.589h-1991.287V4123.84c0 286.52 -211.811 525.963 -486.582 569.491h-1353.164c-316.109 0 -574.742 258.632 -574.742 574.742v1843.964z" />
      <path class="fil3"
        d="M14381.324 2055.945h-1281.76c-305.676 0 -555.774 -250.095 -555.774 -555.774V610.116c0 -258.632 -211.607 -470.24 -470.236 -470.24h-1518.677v1384.928c0 307.549 251.629 559.182 559.182 559.182h821.288c340.72 0 619.487 278.771 619.487 619.487v1220.608c0 306.491 -250.76 557.251 -557.247 557.251h-1330.731c-295.043 0 -536.443 241.4 -536.443 536.443v1319.047c0 302.967 247.876 550.843 550.84 550.843h1873.582v-1818.949c0 -323.062 264.324 -587.385 587.389 -587.385h1221.466c330.211 0 600.382 -270.171 600.382 -600.382V2638.691c0 -320.509 -262.236 -582.745 -582.745 -582.745" />
    </g>
    <path class="fil4"
      d="M15581.534 12575.062c0 392.356 116.011 765.531 307.414 972.665 341.488 369.578 1152.033 442.712 1617.745 155.483l176.083 -113.752 24.152 241.535h386.44v-1352.534h-1304.233v410.592h748.731c-14.971 671.963 -1173.677 734.56 -1338.32 58.24 -109.975 -451.688 -44.586 -1193.415 613.742 -1193.415 183.494 0 379.295 -4.375 524.756 103.218 140.349 103.775 175.673 199.331 175.673 355.676h579.651c0 -285.152 -125.48 -530.077 -285.546 -656.396 -377.957 -298.298 -1151.578 -362.433 -1598.953 -141.232 -430.618 212.928 -627.338 617.255 -627.338 1159.92" />
    <path class="fil4"
      d="M4447.273 13420.4c-671.782 0 -724.582 -465.592 -724.582 -941.942 0 -405.44 226.502 -724.582 627.957 -724.582 241.142 0 485.182 -6.16 648.367 245.273 197.912 304.949 202 852.545 -9.735 1166.222 -101.102 149.797 -306.76 255.029 -542.008 255.029m-1304.233 -893.64c0 853.88 384.469 1352.534 1280.08 1352.534 393.527 0 724.396 -105.971 924.24 -307.52 121.968 -122.993 175.077 -180.229 251.742 -352.062 111.658 -250.262 104.08 -488.898 104.08 -765.408 0 -678.414 -494.589 -1159.323 -1062.698 -1159.323 -436.676 0 -869.633 -33.928 -1213.789 356.109 -174.458 197.706 -283.654 509.189 -283.654 875.669" />
    <path class="fil4"
      d="M10606.12 13106.411h555.52v-1328.382c490.175 0 1111 -26.535 1111 627.975 0 375.168 40.789 966.091 -627.952 966.091H10606.12v458.898h1062.72c364.32 0 635.571 -102.891 838.785 -272.236 349.637 -291.378 344.669 -720.472 344.669 -1152.753 0 -279.363 -117.883 -580.472 -316.146 -770.706l-64.032 -56.745c-411.622 -344.811 -1236.051 -259.418 -1865.996 -259.418z" />
    <path class="fil4"
      d="M172.287 13830.993h555.502l3.553 -694.145 1711.269 -1817.713 -661.716 0.203c-12.258 6.509 -954.367 1044.688 -1053.105 1110.814v-1111.018H172.287z" />
    <path class="fil4" points="38332.7,38035.23 39860.32,38035.23 39860.32,31127.62 38332.7,31127.62 "
      d="M13939.164 13830.993h555.499v-2511.858h-555.499Z" />
    <path class="fil4" points="52944.91,38035.23 54472.54,38035.23 54472.54,31127.62 52944.91,31127.62 "
      d="M19252.695 13830.993h555.502v-2511.858h-555.502Z" />
    <path class="fil4"
      d="M1264.64 12967.029c184.975 278.931 359.683 579.731 550.018 863.963h652.106c-43.498 -162.898 -651.738 -981.352 -797.033 -1255.931z" />
    <path class="fil5"
      points="18649.82,38035.23 18649.82,31128.06 20935.58,31128.06 22286.34,35838.95 23621.31,31128.06 25912.33,31128.06 25912.33,38035.23 24384.65,38035.23 24379.39,32693.3 23010.84,38035.23 21544.3,38035.23 20065.48,32696.75 20060.22,38035.23 "
      d="M6781.752 13830.993v-2511.698h831.186l491.185 1713.051 485.444 -1713.051h833.098v2511.698h-555.52l-1.913 -1942.52 -497.654 1942.52h-533.287l-537.753 -1941.265 -1.913 1941.265Z" />
    <g id="_2412662964432">
      <path class="fil5"
        d="M169.029 14674.392h134.088v439.709l421.586 -439.709h163.08l-317.702 333.404 327.368 495.276H739.2l-259.72 -401.051 -176.363 159.454v241.596H169.029zm1079.331 843.174c-102.276 0 -178.378 -26.978 -228.309 -80.934s-74.898 -137.709 -74.898 -251.262c0 -113.549 24.968 -197.305 74.898 -251.262s126.032 -80.934 228.309 -80.934c92.611 0 161.869 25.168 207.774 75.498q68.853 75.501 68.855 239.786v48.32H1073.2c3.222 68.454 18.724 118.989 46.509 151.603q41.673 48.922 129.858 48.923c45.906 0 82.949 -10.873 111.135 -32.614 28.189 -21.745 42.28 -55.167 42.28 -100.266h122.007c0 75.702 -25.567 133.483 -76.706 173.349 -51.138 39.862 -117.782 59.792 -199.923 59.792m147.375 -395.011c0 -112.746 -49.123 -169.12 -147.375 -169.12 -54.764 0 -95.832 13.491 -123.215 40.469q-41.072 40.468 -49.528 128.651zm251.858 -254.887h100.266l12.08 84.56h8.454q32.617 -48.317 79.728 -73.688c47.11 -25.37 67.243 -25.367 107.513 -25.367 82.142 0 137.305 33.018 165.494 99.055h7.247c21.742 -31.407 49.528 -55.767 83.349 -73.084 33.825 -17.313 70.869 -25.971 111.138 -25.971 59.593 0 106.302 15.905 140.124 47.717 33.825 31.811 50.738 83.149 50.738 154.018v448.163h-124.425v-424.003q0 -65.231 -28.386 -92.411c-18.927 -18.12 -45.302 -27.182 -79.124 -27.182q-59.193 0.001 -99.055 47.112 -39.867 47.112 -39.865 123.215v373.269h-124.422v-424.003q-0.001 -65.231 -27.182 -92.411c-27.181 -27.18 -44.091 -27.182 -77.912 -27.182q-59.193 0.001 -100.266 47.112 -41.068 47.112 -41.069 123.215v373.269h-124.425zm1288.313 649.898c-102.276 0 -178.378 -26.978 -228.309 -80.934s-74.898 -137.709 -74.898 -251.262c0 -113.549 24.968 -197.305 74.898 -251.262s126.032 -80.934 228.309 -80.934c92.611 0 161.869 25.168 207.774 75.498q68.853 75.501 68.855 239.786v48.32h-451.788c3.222 68.454 18.724 118.989 46.509 151.603q41.673 48.922 129.858 48.923 68.858 -0.001 111.135 -32.614c28.189 -21.745 42.28 -55.167 42.28 -100.266h122.007c0 75.702 -25.567 133.483 -76.706 173.349 -51.138 39.862 -117.782 59.792 -199.923 59.792m147.375 -395.011q0.001 -169.119 -147.375 -169.12c-54.764 0 -95.832 13.491 -123.215 40.469q-41.072 40.468 -49.528 128.651zm251.858 -254.887h100.266l12.08 84.56h8.454q33.824 -48.318 87.578 -73.688c35.84 -16.913 76.305 -25.367 121.403 -25.367 134.491 0 201.734 72.883 201.734 218.648v431.251h-124.422v-415.549c0 -47.513 -10.672 -80.734 -32.011 -99.658 -21.342 -18.924 -52.549 -28.389 -93.622 -28.389q-42.279 0 -78.52 21.142c-24.157 14.091 -43.283 34.026 -57.378 59.797 -14.091 25.767 -21.138 55.568 -21.138 89.389v373.269h-124.425zm838.942 648.691c-48.32 0 -83.349 -13.891 -105.094 -41.676 -21.742 -27.782 -32.614 -62.211 -32.614 -103.28v-401.055h-77.313v-102.68h78.52l24.16 -177.575h99.055v177.575h107.513v102.68h-107.513v388.974c0 37.044 17.317 55.568 51.946 55.568h55.568v84.556c-10.469 4.832 -24.764 8.862 -42.883 12.08 -18.12 3.222 -35.233 4.832 -51.342 4.832m465.673 1.208c-102.276 0 -178.378 -26.978 -228.309 -80.934s-74.898 -137.709 -74.898 -251.262c0 -113.549 24.968 -197.305 74.898 -251.262s126.032 -80.934 228.309 -80.934c92.611 0 161.869 25.168 207.774 75.498q68.854 75.501 68.855 239.786v48.32h-451.789c3.222 68.454 18.724 118.989 46.509 151.603q41.673 48.922 129.858 48.923c45.906 0 82.949 -10.873 111.135 -32.614 28.189 -21.745 42.28 -55.167 42.28 -100.266h122.007c0 75.702 -25.567 133.483 -76.706 173.349 -51.138 39.862 -117.782 59.792 -199.923 59.792m147.375 -395.011c0 -112.746 -49.123 -169.12 -147.375 -169.12 -54.764 0 -95.832 13.491 -123.215 40.469q-41.072 40.468 -49.528 128.651zm251.858 -254.887h100.266l12.08 97.847h7.247c28.992 -74.894 77.713 -112.342 146.167 -112.342 14.495 0 27.178 1.411 38.051 4.229s17.92 4.629 21.138 5.436v118.382h-44.694q-71.27 0 -113.549 41.072c-28.189 27.378 -42.28 69.258 -42.28 125.629v355.149h-124.425zm417.353 -237.971h124.425v128.043h-124.425zm0 237.971h124.425v635.404h-124.425zm447.553 649.898q-78.518 0.001 -141.938 -38.654c-63.42 -38.656 -63.418 -72.48 -63.418 -140.127 0 -81.338 35.432 -137.709 106.302 -169.117s172.338 -47.112 304.414 -47.112v-62.815q-0.001 -51.944 -27.182 -79.124c-27.181 -27.18 -51.742 -27.182 -100.865 -27.182 -47.517 0 -81.138 8.458 -100.869 25.371 -19.731 16.909 -29.593 37.447 -29.593 61.608v15.702h-120.8c-0.807 -4.832 -1.208 -13.691 -1.208 -26.575 0 -55.568 23.352 -98.855 70.062 -129.858 46.709 -31.008 109.124 -46.509 187.24 -46.509 82.142 0 143.949 16.913 185.425 50.734 41.472 33.825 62.211 81.742 62.211 143.752v324.949c0 14.495 4.026 25.163 12.08 32.011 8.055 6.843 18.12 10.269 30.2 10.269h43.487v83.349c-20.938 10.469 -49.528 15.706 -85.767 15.706 -28.992 0 -53.352 -7.854 -73.084 -23.556q-29.598 -23.558 -39.258 -64.629h-8.458c-22.549 28.992 -51.338 51.542 -86.371 67.647 -35.032 16.109 -75.902 24.16 -122.611 24.16m36.24 -101.469c47.517 0 87.578 -14.294 120.197 -42.883 32.614 -28.589 48.923 -67.851 48.923 -117.778v-38.658c-91.808 0 -161.873 7.854 -210.192 23.556q-72.475 23.558 -72.477 88.789 0 44.696 28.386 65.832c18.927 14.095 47.313 21.142 85.163 21.142m465.673 -548.429h100.266l12.08 84.56h8.454q33.824 -48.318 87.578 -73.688c35.84 -16.913 76.305 -25.367 121.403 -25.367q201.736 0.001 201.734 218.648v431.251h-124.422v-415.549c0 -47.513 -10.672 -80.734 -32.011 -99.658 -21.342 -18.924 -52.549 -28.389 -93.622 -28.389q-42.279 0 -78.52 21.142c-24.157 14.091 -43.283 34.026 -57.378 59.797 -14.091 25.767 -21.138 55.568 -21.138 89.389v373.269h-124.425zm1031.014 -193.276h134.088v439.709l421.586 -439.709h163.08l-317.702 333.404 327.368 495.276h-158.248l-259.72 -401.051 -176.363 159.454v241.596h-134.088zm1075.706 843.174c-100.665 0 -176.163 -27.178 -226.498 -81.538q-75.498 -81.54 -75.498 -250.658c-0.001 -169.118 25.168 -196.298 75.498 -250.658 50.334 -54.36 125.832 -81.538 226.498 -81.538s176.368 27.178 227.102 81.538q76.106 81.54 76.106 250.658c-0.001 169.118 -25.367 196.298 -76.106 250.658 -50.734 54.36 -126.436 81.538 -227.102 81.538m0 -102.677q91.811 -0.001 133.483 -53.757 41.678 -53.755 41.676 -169.724v-12.08q0.001 -115.965 -41.676 -169.72c-27.782 -35.84 -72.276 -53.757 -133.483 -53.757 -60.4 0 -104.491 17.916 -132.273 53.757q-41.678 53.755 -41.676 169.72v12.08q-0.001 115.969 41.676 169.724 41.672 53.755 132.273 53.757m423.392 -547.222h100.266l12.08 84.56h8.454c21.745 -32.211 48.32 -56.775 79.728 -73.688s67.243 -25.367 107.513 -25.367c82.142 0 137.305 33.018 165.494 99.055h7.247c21.742 -31.407 49.528 -55.767 83.349 -73.084 33.825 -17.313 70.869 -25.971 111.138 -25.971 59.593 0 106.302 15.905 140.124 47.717 33.825 31.811 50.738 83.149 50.738 154.018v448.163h-124.425v-424.003q0 -65.231 -28.386 -92.411c-18.927 -18.12 -45.302 -27.182 -79.124 -27.182 -39.462 0 -72.48 15.706 -99.055 47.112q-39.867 47.112 -39.865 123.215v373.269h-124.422v-424.003q-0.001 -65.231 -27.182 -92.411c-27.181 -27.18 -44.091 -27.182 -77.912 -27.182 -39.462 0 -72.883 15.706 -100.266 47.112q-41.068 47.112 -41.069 123.215v373.269h-124.425zm1219.458 649.898c-134.491 0 -201.734 -72.88 -201.734 -218.643v-431.255h124.422v415.549c0 47.517 10.672 80.734 32.011 99.658 21.342 18.927 52.549 28.389 93.622 28.389 28.186 0 54.356 -7.048 78.516 -21.138q36.24 -21.141 57.382 -59.797 21.137 -38.656 21.138 -89.392v-373.269h124.422v635.404h-100.262l-12.08 -84.56h-8.454c-23.357 32.215 -52.749 56.775 -88.186 73.688q-53.149 25.368 -120.796 25.367m488.622 -649.898h100.266l12.08 84.56h8.454q33.824 -48.317 87.578 -73.688c35.84 -16.913 76.305 -25.367 121.403 -25.367q201.736 0.001 201.734 218.648v431.251h-124.422v-415.549c0 -47.513 -10.672 -80.734 -32.011 -99.658 -21.342 -18.924 -52.549 -28.389 -93.622 -28.389q-42.279 0 -78.52 21.142c-24.157 14.091 -43.283 34.026 -57.378 59.797 -14.091 25.767 -21.138 55.568 -21.138 89.389v373.269h-124.425zm686.735 -237.971h124.425v128.043h-124.425zm0 237.971h124.425v635.404h-124.425zm283.265 -237.971h124.425v531.513l251.262 -293.542h149.789l-216.229 247.64 228.309 387.764h-143.749l-163.08 -297.163 -106.302 101.469v195.695h-124.425zm783.375 887.869c-52.346 0 -99.658 -12.883 -141.938 -38.654s-63.418 -72.48 -63.418 -140.127c0 -81.338 35.432 -137.709 106.302 -169.117s172.338 -47.112 304.414 -47.112v-62.815q-0.001 -51.944 -27.182 -79.124c-27.181 -27.18 -51.742 -27.182 -100.865 -27.182 -47.517 0 -81.138 8.458 -100.869 25.371 -19.731 16.909 -29.593 37.447 -29.593 61.608v15.702h-120.8c-0.807 -4.832 -1.208 -13.691 -1.208 -26.575 0 -55.568 23.352 -98.855 70.062 -129.858 46.709 -31.008 109.124 -46.509 187.24 -46.509 82.142 0 143.949 16.913 185.425 50.734 41.472 33.825 62.211 81.742 62.211 143.752v324.949q-0.001 21.741 12.08 32.011c8.055 6.843 18.12 10.269 30.2 10.269h43.487v83.349c-20.938 10.469 -49.528 15.706 -85.767 15.706 -28.992 0 -53.352 -7.854 -73.084 -23.556q-29.598 -23.558 -39.258 -64.629h-8.458c-22.549 28.992 -51.338 51.542 -86.371 67.647 -35.032 16.109 -75.902 24.16 -122.611 24.16m36.24 -101.469c47.517 0 87.578 -14.294 120.197 -42.883 32.614 -28.589 48.923 -67.851 48.923 -117.778v-38.658c-91.808 0 -161.873 7.854 -210.192 23.556q-72.475 23.558 -72.477 88.789 0 44.696 28.386 65.832c18.927 14.095 47.313 21.142 85.163 21.142m693.986 101.469c-86.978 0 -153.214 -18.12 -198.716 -54.36q-68.252 -54.355 -68.251 -136.502c0 -8.858 0.2 -14.694 0.604 -17.517q0.605 -4.226 0.604 -5.436h122.007v10.873q0.001 51.943 42.28 77.916c28.186 17.313 64.025 25.971 107.513 25.971q57.983 0 97.24 -21.742c26.174 -14.498 39.262 -35.032 39.262 -61.608 0 -20.938 -7.247 -38.054 -21.745 -51.342q-21.742 -19.931 -53.149 -31.407 -31.407 -11.476 -90.6 -27.178c-48.32 -12.08 -87.782 -24.16 -118.382 -36.24q-45.904 -18.12 -77.916 -54.36c-32.012 -36.24 -32.011 -56.374 -32.011 -96.64 0 -57.982 23.756 -103.284 71.269 -135.898q71.275 -48.922 189.655 -48.923c49.127 0 92.011 7.451 128.651 22.349 36.644 14.898 64.829 35.633 84.56 62.211q29.596 39.862 29.596 89.389l-1.208 24.16h-122.007v-8.454c0 -26.575 -10.672 -48.12 -32.014 -64.629 -21.338 -16.509 -54.157 -24.764 -98.451 -24.764 -42.68 0 -73.888 7.451 -93.618 22.349q-29.596 22.348 -29.596 52.549c0 24.963 12.08 43.487 36.24 55.568s62.414 24.16 114.76 36.24c50.734 12.08 92.211 24.36 124.422 36.843 32.215 12.48 59.996 31.808 83.353 57.982 23.352 26.174 35.032 61.004 35.032 104.491 0 67.647 -24.363 117.578 -73.084 149.789q-73.085 48.321 -196.298 48.32m390.774 -887.869h124.425v128.043h-124.425zm0 237.971h124.425v635.404h-124.425zm831.694 649.898c-80.531 0 -142.542 -27.178 -186.029 -81.538s-65.233 -137.912 -65.233 -250.658c0 -111.135 21.745 -194.284 65.233 -249.447 43.487 -55.167 102.677 -82.749 177.575 -82.749 87.778 0 151.804 28.992 192.069 86.975h7.247v-310.451h124.422v873.375h-99.055l-12.08 -84.56h-8.454c-20.134 32.215 -47.313 56.775 -81.538 73.688q-51.343 25.368 -114.156 25.367m35.032 -105.094c53.956 0 93.418 -18.52 118.382 -55.568 24.963 -37.044 37.447 -91.808 37.447 -164.287v-9.662q0.001 -224.688 -155.829 -224.688c-57.178 0 -97.847 17.113 -122.007 51.342 -24.16 34.225 -36.24 91.603 -36.24 172.138v10.869c0 78.924 12.08 135.294 36.24 169.12q36.24 50.733 122.007 50.734m603.382 105.094c-52.346 0 -99.658 -12.883 -141.938 -38.654s-63.418 -72.48 -63.418 -140.127c0 -81.338 35.432 -137.709 106.302 -169.117s172.338 -47.112 304.414 -47.112v-62.815c0 -34.629 -9.062 -61.004 -27.182 -79.124s-51.742 -27.182 -100.865 -27.182c-47.517 0 -81.138 8.458 -100.869 25.371 -19.731 16.909 -29.593 37.447 -29.593 61.608v15.702h-120.8c-0.807 -4.832 -1.208 -13.691 -1.208 -26.575 0 -55.568 23.352 -98.855 70.062 -129.858 46.709 -31.008 109.124 -46.509 187.24 -46.509 82.142 0 143.949 16.913 185.425 50.734 41.472 33.825 62.211 81.742 62.211 143.752v324.949q-0.001 21.741 12.08 32.011c8.055 6.843 18.12 10.269 30.2 10.269h43.487v83.349c-20.938 10.469 -49.528 15.706 -85.767 15.706 -28.992 0 -53.352 -7.854 -73.084 -23.556q-29.597 -23.558 -39.258 -64.629h-8.458c-22.549 28.992 -51.338 51.542 -86.371 67.647 -35.032 16.109 -75.902 24.16 -122.611 24.16m36.24 -101.469c47.517 0 87.578 -14.294 120.197 -42.883 32.614 -28.589 48.923 -67.851 48.923 -117.778v-38.658c-91.808 0 -161.873 7.854 -210.192 23.556q-72.475 23.558 -72.477 88.789 0 44.696 28.386 65.832c18.927 14.095 47.313 21.142 85.163 21.142m465.673 -548.429h100.266l12.08 84.56h8.454q33.824 -48.318 87.578 -73.688c35.84 -16.913 76.305 -25.367 121.403 -25.367q201.736 0.001 201.734 218.648v431.251h-124.422v-415.549c0 -47.513 -10.672 -80.734 -32.011 -99.658 -21.342 -18.924 -52.549 -28.389 -93.622 -28.389q-42.279 0 -78.52 21.142c-24.157 14.091 -43.283 34.026 -57.378 59.797 -14.091 25.767 -21.138 55.568 -21.138 89.389v373.269h-124.425zm1031.014 -193.276h318.909q195.693 -0.001 301.997 102.68 106.302 102.677 106.302 311.658c0 139.323 -35.432 243.211 -106.302 311.662q-106.303 102.681 -301.997 102.68h-318.909zm318.909 713.92q131.667 -0.001 201.131 -70.665 69.458 -70.668 69.458 -221.666v-13.291q0 -152.203 -69.458 -222.873c-46.309 -47.112 -113.353 -70.665 -201.131 -70.665h-184.822v599.16zm539.356 -758.615h124.425v128.043h-124.425zm0 237.971h124.425v635.404h-124.425zm393.192 855.258q-67.647 -0.001 -117.778 -37.447c-33.422 -24.968 -50.131 -62.815 -50.131 -113.552q-0.001 -94.221 101.469 -134.088c-19.328 -10.469 -35.029 -23.956 -47.109 -40.465q-18.12 -24.764 -18.12 -56.171c0 -29.8 10.873 -53.352 32.614 -70.669 21.745 -17.313 46.709 -29.596 74.894 -36.843 -27.378 -19.328 -48.72 -43.084 -64.022 -71.272q-22.953 -42.278 -22.953 -94.222c0 -67.647 23.357 -120.397 70.066 -158.248s111.534 -56.775 194.483 -56.775c44.294 0 84.963 6.843 122.007 20.535q76.108 -39.862 85.767 -109.927h119.593c0 40.269 -11.277 74.091 -33.825 101.472s-53.553 45.502 -93.014 54.36q65.232 57.982 65.233 148.582 -0.001 100.264 -70.066 157.04c-70.064 56.776 -111.135 56.775 -193.276 56.775h-100.266q-28.991 0 -44.694 13.287c-10.469 8.858 -15.702 20.134 -15.702 33.825s5.032 24.963 15.098 33.822q15.098 13.287 42.883 13.287h265.757c49.127 0 88.585 15.302 118.385 45.906q44.695 45.901 44.694 113.549 -0.001 49.527 -24.16 92.411 -24.158 42.883 -72.48 68.858c-32.211 17.313 -70.869 25.971 -115.968 25.971zm153.415 -531.516c46.709 0 82.145 -10.669 106.305 -32.011s36.24 -51.742 36.24 -91.204 -11.88 -69.862 -35.636 -91.204 -59.392 -32.011 -106.909 -32.011c-46.709 0 -81.942 10.669 -105.698 32.011s-35.636 51.742 -35.636 91.204 11.88 69.862 35.636 91.204 58.989 32.011 105.698 32.011m117.174 437.291q37.451 0.001 62.215 -20.535c24.764 -20.535 24.764 -31.407 24.764 -53.153 0 -21.742 -6.848 -39.058 -20.538 -51.942s-31.407 -19.328 -53.149 -19.328h-254.887q-32.613 0.001 -52.549 19.328c-13.287 12.883 -19.931 30.2 -19.931 51.942q0 33.825 19.931 53.757 19.936 19.931 52.549 19.931zm306.218 -999.004h124.425v128.043h-124.425zm0 237.971h124.425v635.404h-124.425zm435.473 648.691c-48.32 0 -83.349 -13.891 -105.094 -41.676 -21.742 -27.782 -32.614 -62.211 -32.614 -103.28v-401.055h-77.313v-102.68h78.52l24.16 -177.575h99.055v177.575h107.513v102.68h-107.513v388.974c0 37.044 17.317 55.568 51.946 55.568h55.568v84.556c-10.469 4.832 -24.764 8.862 -42.883 12.08 -18.12 3.222 -35.233 4.832 -51.342 4.832m362.993 1.208c-52.346 0 -99.658 -12.883 -141.938 -38.654s-63.418 -72.48 -63.418 -140.127c0 -81.338 35.432 -137.709 106.302 -169.117s172.338 -47.112 304.414 -47.112v-62.815c0 -34.629 -9.062 -61.004 -27.182 -79.124s-51.742 -27.182 -100.865 -27.182c-47.517 0 -81.138 8.458 -100.869 25.371 -19.731 16.909 -29.593 37.447 -29.593 61.608v15.702h-120.8c-0.807 -4.832 -1.208 -13.691 -1.208 -26.575 0 -55.568 23.352 -98.855 70.062 -129.858 46.709 -31.008 109.124 -46.509 187.24 -46.509 82.142 0 143.949 16.913 185.425 50.734 41.472 33.825 62.211 81.742 62.211 143.752v324.949q-0.001 21.741 12.08 32.011c8.055 6.843 18.12 10.269 30.2 10.269h43.487v83.349c-20.938 10.469 -49.528 15.706 -85.767 15.706 -28.992 0 -53.352 -7.854 -73.084 -23.556q-29.597 -23.558 -39.258 -64.629h-8.458c-22.549 28.992 -51.338 51.542 -86.371 67.647 -35.032 16.109 -75.902 24.16 -122.611 24.16m36.24 -101.469c47.517 0 87.578 -14.294 120.197 -42.883 32.614 -28.589 48.923 -67.851 48.923 -117.778v-38.658c-91.808 0 -161.873 7.854 -210.192 23.556q-72.475 23.558 -72.477 88.789 0 44.696 28.386 65.832c18.927 14.095 47.313 21.142 85.163 21.142m465.673 -786.4h124.425v873.375h-124.425zM169.029 16032.596h433.666c86.171 0 151.808 21.742 196.905 65.233 45.098 43.487 67.647 102.677 67.647 177.571 0 57.178 -12.887 105.902 -38.658 146.167 -25.771 40.269 -62.815 69.662 -111.135 88.186l183.614 351.524h-146.167l-170.323 -332.197H303.116v332.197H169.029zm425.211 382.931q64.025 0.001 100.869 -36.843c24.56 -24.56 36.843 -58.586 36.843 -102.073 0 -41.072 -11.68 -72.883 -35.032 -95.433q-35.034 -33.822 -102.68 -33.822H303.116v268.171zm700.022 460.243c-102.276 0 -178.378 -26.978 -228.309 -80.934s-74.898 -137.709 -74.898 -251.262c0 -113.549 24.968 -197.305 74.898 -251.262s126.032 -80.934 228.309 -80.934c92.611 0 161.869 25.168 207.774 75.498q68.854 75.501 68.855 239.786v48.32h-451.789c3.222 68.454 18.724 118.989 46.509 151.603q41.673 48.922 129.858 48.923 68.858 -0.001 111.135 -32.614c28.189 -21.745 42.28 -55.167 42.28 -100.266h122.007c0 75.702 -25.567 133.483 -76.706 173.349 -51.138 39.862 -117.782 59.792 -199.923 59.792m147.375 -395.011q0.001 -169.119 -147.375 -169.12c-54.764 0 -95.832 13.491 -123.215 40.469q-41.072 40.468 -49.528 128.651zm251.858 -254.887h99.058l12.08 84.56h8.454q30.201 -48.317 81.538 -73.688c51.337 -25.37 72.28 -25.367 114.156 -25.367 80.531 0 142.542 27.178 186.029 81.538s65.233 137.912 65.233 250.658c0 111.135 -21.745 194.287 -65.233 249.451s-102.68 82.746 -177.575 82.746c-87.778 0 -151.804 -28.989 -192.069 -86.975h-7.247v281.462h-124.425zm280.255 544.803q85.767 -0.001 122.007 -50.734c24.16 -33.825 36.24 -90.197 36.24 -169.12v-10.869c0 -80.534 -12.08 -137.912 -36.24 -172.138q-36.24 -51.343 -122.007 -51.342c-53.956 0 -93.418 18.927 -118.382 56.775 -24.968 37.851 -37.447 93.418 -37.447 166.706v9.662c0 72.48 12.48 127.444 37.447 164.891q37.447 56.171 118.382 56.171m604.592 105.094c-134.491 0 -201.734 -72.88 -201.734 -218.643v-431.255h124.422v415.549c0 47.517 10.672 80.734 32.011 99.658 21.342 18.927 52.549 28.389 93.622 28.389 28.186 0 54.356 -7.048 78.516 -21.138q36.24 -21.141 57.382 -59.797 21.137 -38.656 21.138 -89.392v-373.269h124.422v635.404h-100.262l-12.08 -84.56h-8.454c-23.357 32.215 -52.749 56.775 -88.186 73.688q-53.149 25.368 -120.796 25.367m803.909 0c-41.877 0 -79.931 -8.454 -114.156 -25.367s-61.404 -41.472 -81.538 -73.688h-8.454l-12.08 84.56h-99.058v-873.375h124.425v310.451h7.247c40.266 -57.982 104.291 -86.975 192.069 -86.975 74.894 0 134.088 27.582 177.575 82.749q65.232 82.745 65.233 249.447 -0.001 169.118 -65.233 250.658c-65.231 81.54 -105.498 81.538 -186.029 81.538m-35.032 -105.094q85.767 -0.001 122.007 -50.734c24.16 -33.825 36.24 -90.197 36.24 -169.12v-10.869c0 -80.534 -12.08 -137.912 -36.24 -172.138q-36.24 -51.343 -122.007 -51.342c-53.956 0 -93.418 18.927 -118.382 56.775 -24.968 37.851 -37.447 93.822 -37.447 167.912v9.662c0 72.48 12.48 127.243 37.447 164.287 24.963 37.047 64.425 55.568 118.382 55.568m406.48 -782.774h124.425v873.375h-124.425zm283.265 0h124.425v128.043h-124.425zm0 237.971h124.425v635.404h-124.425zm283.265 -237.971h124.425v531.513l251.262 -293.542h149.789l-216.229 247.64 228.309 387.764h-143.749l-163.08 -297.163 -106.302 101.469v195.695H4320.23zm974.24 44.694h134.083v828.68h-134.083zm311.048 193.276h100.266l12.08 84.56h8.454q33.824 -48.317 87.578 -73.688c35.84 -16.913 76.305 -25.367 121.403 -25.367q201.736 0.001 201.734 218.648v431.251h-124.422v-415.549c0 -47.513 -10.672 -80.734 -32.011 -99.658 -21.342 -18.924 -52.549 -28.389 -93.622 -28.389q-42.279 0 -78.52 21.142c-24.157 14.091 -43.283 34.026 -57.378 59.797 -14.091 25.767 -21.138 55.568 -21.138 89.389v373.269h-124.425zm899.342 649.898c-80.531 0 -142.542 -27.178 -186.029 -81.538s-65.233 -137.912 -65.233 -250.658q0.001 -166.702 65.233 -249.447c43.487 -55.167 102.677 -82.749 177.575 -82.749 87.778 0 151.804 28.992 192.069 86.975h7.247v-310.451h124.422v873.375h-99.055l-12.08 -84.56h-8.454c-20.134 32.215 -47.313 56.775 -81.538 73.688q-51.343 25.368 -114.156 25.367m35.032 -105.094c53.956 0 93.418 -18.52 118.382 -55.568 24.963 -37.044 37.447 -91.808 37.447 -164.287v-9.662q0.001 -224.688 -155.829 -224.688c-57.178 0 -97.847 17.113 -122.007 51.342 -24.16 34.225 -36.24 91.603 -36.24 172.138v10.869c0 78.924 12.08 135.294 36.24 169.12q36.24 50.733 122.007 50.734m702.437 105.094c-100.665 0 -176.163 -27.178 -226.498 -81.538q-75.497 -81.54 -75.498 -250.658c-0.001 -169.118 25.168 -196.298 75.498 -250.658 50.334 -54.36 125.832 -81.538 226.498 -81.538s176.368 27.178 227.102 81.538q76.106 81.54 76.106 250.658c-0.001 169.118 -25.367 196.298 -76.106 250.658 -50.734 54.36 -126.436 81.538 -227.102 81.538m0 -102.677q91.811 -0.001 133.483 -53.757 41.678 -53.755 41.676 -169.724v-12.08q0.001 -115.965 -41.676 -169.72c-27.782 -35.84 -72.276 -53.757 -133.483 -53.757 -60.4 0 -104.491 17.916 -132.273 53.757q-41.678 53.755 -41.676 169.72v12.08q-0.001 115.969 41.676 169.724 41.673 53.755 132.273 53.757m423.392 -547.222h100.266l12.08 84.56h8.454q33.824 -48.317 87.578 -73.688c35.84 -16.913 76.305 -25.367 121.403 -25.367q201.736 0.001 201.734 218.648v431.251h-124.422v-415.549c0 -47.513 -10.672 -80.734 -32.011 -99.658 -21.342 -18.924 -52.549 -28.389 -93.622 -28.389q-42.279 0 -78.52 21.142c-24.157 14.091 -43.283 34.026 -57.378 59.797 -14.091 25.767 -21.138 55.568 -21.138 89.389v373.269h-124.425zm953.702 649.898c-102.276 0 -178.378 -26.978 -228.309 -80.934s-74.898 -137.709 -74.898 -251.262c0 -113.549 24.968 -197.305 74.898 -251.262s126.032 -80.934 228.309 -80.934c92.611 0 161.869 25.168 207.774 75.498q68.854 75.501 68.855 239.786v48.32h-451.789c3.222 68.454 18.724 118.989 46.509 151.603q41.673 48.922 129.858 48.923c45.906 0 82.949 -10.873 111.135 -32.614 28.189 -21.745 42.28 -55.167 42.28 -100.266h122.007c0 75.702 -25.567 133.483 -76.706 173.349 -51.138 39.862 -117.782 59.792 -199.923 59.792m147.375 -395.011q0.001 -169.119 -147.375 -169.12c-54.764 0 -95.832 13.491 -123.215 40.469q-41.072 40.468 -49.528 128.651z" />
      <path class="fil5"
        d="M9246.968 16875.771c-86.978 0 -153.214 -18.12 -198.716 -54.36 -45.502 -36.236 -68.251 -81.738 -68.251 -136.502 0 -8.858 0.2 -14.694 0.604 -17.517q0.605 -4.226 0.604 -5.436h122.007v10.873q0.001 51.943 42.28 77.916c28.186 17.313 64.025 25.971 107.513 25.971q57.983 0 97.24 -21.742 39.262 -21.746 39.262 -61.608c0 -20.938 -7.247 -38.054 -21.745 -51.342q-21.742 -19.931 -53.149 -31.407c-20.938 -7.651 -51.138 -16.709 -90.6 -27.178 -48.32 -12.08 -87.782 -24.16 -118.382 -36.24q-45.904 -18.12 -77.916 -54.36c-32.012 -36.24 -32.011 -56.374 -32.011 -96.64 0 -57.982 23.756 -103.284 71.269 -135.898q71.275 -48.922 189.655 -48.923 73.691 0.001 128.651 22.349c36.644 14.898 64.829 35.633 84.56 62.211q29.596 39.862 29.596 89.389l-1.208 24.16h-122.007v-8.454c0 -26.575 -10.672 -48.12 -32.014 -64.629 -21.338 -16.509 -54.157 -24.764 -98.451 -24.764 -42.68 0 -73.888 7.451 -93.618 22.349q-29.596 22.348 -29.596 52.549c0 24.963 12.08 43.487 36.24 55.568s62.414 24.16 114.76 36.24c50.734 12.08 92.211 24.36 124.422 36.843 32.215 12.48 59.996 31.808 83.353 57.982 23.352 26.174 35.032 61.004 35.032 104.491 0 67.647 -24.363 117.578 -73.084 149.789q-73.085 48.321 -196.298 48.32m390.774 -887.869h124.425v128.043h-124.425zm0 237.971h124.425v635.404h-124.425zm447.553 649.898q-78.518 0.001 -141.938 -38.654c-63.42 -38.656 -63.418 -72.48 -63.418 -140.127 0 -81.338 35.432 -137.709 106.302 -169.117s172.338 -47.112 304.414 -47.112v-62.815q-0.001 -51.944 -27.182 -79.124c-27.181 -27.18 -51.742 -27.182 -100.865 -27.182 -47.517 0 -81.138 8.458 -100.869 25.371 -19.731 16.909 -29.593 37.447 -29.593 61.608v15.702h-120.8c-0.807 -4.832 -1.208 -13.691 -1.208 -26.575 0 -55.568 23.352 -98.855 70.062 -129.858 46.709 -31.008 109.124 -46.509 187.24 -46.509 82.142 0 143.949 16.913 185.425 50.734 41.472 33.825 62.211 81.742 62.211 143.752v324.949c0 14.495 4.026 25.163 12.08 32.011 8.055 6.843 18.12 10.269 30.2 10.269h43.487v83.349q-31.407 15.704 -85.767 15.706c-28.992 0 -53.352 -7.854 -73.084 -23.556q-29.597 -23.558 -39.258 -64.629h-8.458c-22.549 28.992 -51.338 51.542 -86.371 67.647 -35.032 16.109 -75.902 24.16 -122.611 24.16m36.24 -101.469c47.517 0 87.578 -14.294 120.197 -42.883 32.614 -28.589 48.923 -67.851 48.923 -117.778v-38.658c-91.808 0 -161.873 7.854 -210.192 23.556q-72.475 23.558 -72.477 88.789 0 44.696 28.386 65.832c18.927 14.095 47.313 21.142 85.163 21.142" />
    </g>
  </g>
</svg>